<svg width="150" height="150" viewBox="0 0 150 150" fill="none" xmlns="http://www.w3.org/2000/svg">
<path d="M75 150C116.421 150 150 116.421 150 75C150 33.5786 116.421 0 75 0C33.5786 0 0 33.5786 0 75C0 116.421 33.5786 150 75 150Z" fill="#440E06"/>
<path d="M96.343 150C125.977 150 150 116.421 150 75C150 33.5786 125.977 0 96.343 0C66.7091 0 42.686 33.5786 42.686 75C42.686 116.421 66.7091 150 96.343 150Z" fill="#9D280F"/>
<path d="M118.325 150C135.819 150 150 116.421 150 75C150 33.5786 135.819 0 118.325 0C100.831 0 86.65 33.5786 86.65 75C86.65 116.421 100.831 150 118.325 150Z" fill="#EF4607"/>
<path d="M134.162 150C142.909 150 150 116.421 150 75C150 33.5786 142.909 0 134.162 0C125.415 0 118.324 33.5786 118.324 75C118.324 116.421 125.415 150 134.162 150Z" fill="#FF8237"/>
</svg>
