<svg width="611" height="150" viewBox="0 0 611 150" fill="none" xmlns="http://www.w3.org/2000/svg">
<path d="M75 150C116.421 150 150 116.421 150 75C150 33.5786 116.421 0 75 0C33.5786 0 0 33.5786 0 75C0 116.421 33.5786 150 75 150Z" fill="#440E06"/>
<path d="M96.343 150C125.977 150 150 116.421 150 75C150 33.5786 125.977 0 96.343 0C66.7091 0 42.686 33.5786 42.686 75C42.686 116.421 66.7091 150 96.343 150Z" fill="#9D280F"/>
<path d="M118.325 150C135.819 150 150 116.421 150 75C150 33.5786 135.819 0 118.325 0C100.831 0 86.65 33.5786 86.65 75C86.65 116.421 100.831 150 118.325 150Z" fill="#EF4607"/>
<path d="M134.162 150C142.909 150 150 116.421 150 75C150 33.5786 142.909 0 134.162 0C125.415 0 118.324 33.5786 118.324 75C118.324 116.421 125.415 150 134.162 150Z" fill="#FF8237"/>
<path d="M216.016 110.96C210.704 110.96 206.192 110 202.48 108.08C198.768 106.16 195.44 103.344 192.496 99.632L199.984 92.144C201.84 94.832 204.048 96.944 206.608 98.48C209.168 99.952 212.432 100.688 216.4 100.688C220.112 100.688 223.056 99.92 225.232 98.384C227.472 96.848 228.592 94.736 228.592 92.048C228.592 89.808 228.016 87.984 226.864 86.576C225.712 85.168 224.176 84.016 222.256 83.12C220.4 82.16 218.32 81.328 216.016 80.624C213.776 79.856 211.504 79.024 209.2 78.128C206.96 77.168 204.88 75.984 202.96 74.576C201.104 73.168 199.6 71.344 198.448 69.104C197.296 66.864 196.72 64.016 196.72 60.56C196.72 56.592 197.68 53.232 199.6 50.48C201.584 47.664 204.24 45.52 207.568 44.048C210.896 42.576 214.608 41.84 218.704 41.84C223.12 41.84 227.056 42.704 230.512 44.432C234.032 46.16 236.88 48.368 239.056 51.056L231.568 58.544C229.648 56.368 227.632 54.768 225.52 53.744C223.472 52.656 221.104 52.112 218.416 52.112C215.088 52.112 212.464 52.784 210.544 54.128C208.688 55.472 207.76 57.36 207.76 59.792C207.76 61.84 208.336 63.504 209.488 64.784C210.64 66 212.144 67.056 214 67.952C215.92 68.784 218 69.584 220.24 70.352C222.544 71.12 224.816 71.984 227.056 72.944C229.36 73.904 231.44 75.152 233.296 76.688C235.216 78.16 236.752 80.08 237.904 82.448C239.056 84.816 239.632 87.792 239.632 91.376C239.632 97.392 237.488 102.16 233.2 105.68C228.976 109.2 223.248 110.96 216.016 110.96ZM256.208 110V44.72H266.768V110H256.208ZM245.168 73.52V63.92H277.808V73.52H245.168ZM305.289 110.96C300.809 110.96 296.745 109.904 293.097 107.792C289.449 105.616 286.537 102.704 284.361 99.056C282.249 95.408 281.193 91.344 281.193 86.864C281.193 82.384 282.249 78.352 284.361 74.768C286.537 71.184 289.449 68.336 293.097 66.224C296.745 64.048 300.809 62.96 305.289 62.96C309.833 62.96 313.929 64.016 317.577 66.128C321.225 68.24 324.105 71.12 326.217 74.768C328.393 78.352 329.481 82.384 329.481 86.864C329.481 91.344 328.393 95.408 326.217 99.056C324.105 102.704 321.225 105.616 317.577 107.792C313.929 109.904 309.833 110.96 305.289 110.96ZM305.289 100.784C307.913 100.784 310.217 100.208 312.201 99.056C314.249 97.84 315.817 96.176 316.905 94.064C318.057 91.952 318.633 89.552 318.633 86.864C318.633 84.176 318.057 81.808 316.905 79.76C315.753 77.712 314.185 76.112 312.201 74.96C310.217 73.744 307.913 73.136 305.289 73.136C302.729 73.136 300.425 73.744 298.377 74.96C296.393 76.112 294.825 77.712 293.673 79.76C292.585 81.808 292.041 84.176 292.041 86.864C292.041 89.552 292.585 91.952 293.673 94.064C294.825 96.176 296.393 97.84 298.377 99.056C300.425 100.208 302.729 100.784 305.289 100.784ZM359.478 110.96C354.934 110.96 350.806 109.904 347.094 107.792C343.446 105.68 340.566 102.8 338.454 99.152C336.342 95.504 335.286 91.44 335.286 86.96C335.286 82.416 336.342 78.352 338.454 74.768C340.566 71.12 343.446 68.24 347.094 66.128C350.806 64.016 354.934 62.96 359.478 62.96C363.062 62.96 366.39 63.664 369.462 65.072C372.598 66.416 375.254 68.368 377.43 70.928L370.518 77.936C369.174 76.336 367.542 75.152 365.622 74.384C363.766 73.552 361.718 73.136 359.478 73.136C356.854 73.136 354.518 73.744 352.47 74.96C350.486 76.112 348.918 77.712 347.766 79.76C346.678 81.808 346.134 84.208 346.134 86.96C346.134 89.648 346.678 92.048 347.766 94.16C348.918 96.208 350.486 97.84 352.47 99.056C354.518 100.208 356.854 100.784 359.478 100.784C361.718 100.784 363.766 100.4 365.622 99.632C367.542 98.8 369.174 97.584 370.518 95.984L377.43 102.992C375.254 105.552 372.598 107.536 369.462 108.944C366.39 110.288 363.062 110.96 359.478 110.96ZM414.324 110L394.836 86.48L414.228 63.92H426.804L404.531 89.264L405.012 83.216L427.764 110H414.324ZM385.044 110V40.88H395.604V110H385.044ZM451.027 110.96C446.867 110.96 443.091 109.904 439.699 107.792C436.371 105.68 433.715 102.832 431.731 99.248C429.811 95.6 428.851 91.536 428.851 87.056C428.851 82.512 429.811 78.448 431.731 74.864C433.715 71.216 436.371 68.336 439.699 66.224C443.091 64.048 446.867 62.96 451.027 62.96C454.547 62.96 457.651 63.728 460.339 65.264C463.091 66.736 465.267 68.784 466.867 71.408C468.467 74.032 469.267 77.008 469.267 80.336V93.584C469.267 96.912 468.467 99.888 466.867 102.512C465.331 105.136 463.187 107.216 460.435 108.752C457.683 110.224 454.547 110.96 451.027 110.96ZM452.755 100.976C456.659 100.976 459.795 99.664 462.163 97.04C464.595 94.416 465.811 91.056 465.811 86.96C465.811 84.208 465.267 81.776 464.179 79.664C463.091 77.552 461.555 75.92 459.571 74.768C457.651 73.552 455.379 72.944 452.755 72.944C450.195 72.944 447.923 73.552 445.939 74.768C444.019 75.92 442.483 77.552 441.331 79.664C440.243 81.776 439.699 84.208 439.699 86.96C439.699 89.712 440.243 92.144 441.331 94.256C442.483 96.368 444.019 98.032 445.939 99.248C447.923 100.4 450.195 100.976 452.755 100.976ZM465.139 110V97.616L466.963 86.384L465.139 75.248V63.92H475.699V110H465.139ZM512.091 110.96C508.571 110.96 505.435 110.224 502.683 108.752C499.931 107.216 497.755 105.136 496.155 102.512C494.619 99.888 493.851 96.912 493.851 93.584V80.336C493.851 77.008 494.651 74.032 496.251 71.408C497.851 68.784 500.027 66.736 502.779 65.264C505.531 63.728 508.635 62.96 512.091 62.96C516.251 62.96 519.995 64.048 523.323 66.224C526.715 68.336 529.371 71.216 531.291 74.864C533.275 78.448 534.267 82.512 534.267 87.056C534.267 91.536 533.275 95.6 531.291 99.248C529.371 102.832 526.715 105.68 523.323 107.792C519.995 109.904 516.251 110.96 512.091 110.96ZM487.419 110V40.88H497.979V75.248L496.155 86.384L497.979 97.616V110H487.419ZM510.363 100.976C512.923 100.976 515.163 100.4 517.083 99.248C519.067 98.032 520.603 96.368 521.691 94.256C522.843 92.144 523.419 89.712 523.419 86.96C523.419 84.208 522.843 81.776 521.691 79.664C520.603 77.552 519.067 75.92 517.083 74.768C515.163 73.552 512.923 72.944 510.363 72.944C507.803 72.944 505.531 73.552 503.547 74.768C501.563 75.92 500.027 77.552 498.939 79.664C497.851 81.776 497.307 84.208 497.307 86.96C497.307 89.712 497.851 92.144 498.939 94.256C500.027 96.368 501.563 98.032 503.547 99.248C505.531 100.4 507.803 100.976 510.363 100.976ZM543.106 110V40.88H553.666V110H543.106ZM586.827 110.96C582.219 110.96 578.059 109.936 574.347 107.888C570.699 105.776 567.787 102.896 565.611 99.248C563.499 95.6 562.443 91.504 562.443 86.96C562.443 82.416 563.499 78.352 565.611 74.768C567.723 71.12 570.571 68.24 574.155 66.128C577.803 64.016 581.835 62.96 586.251 62.96C590.539 62.96 594.315 63.952 597.579 65.936C600.907 67.92 603.499 70.64 605.355 74.096C607.275 77.552 608.235 81.488 608.235 85.904C608.235 86.672 608.171 87.472 608.042 88.304C607.979 89.072 607.851 89.936 607.659 90.896H569.835V82.256H602.187L598.251 85.712C598.123 82.896 597.579 80.528 596.619 78.608C595.659 76.688 594.283 75.216 592.491 74.192C590.763 73.168 588.619 72.656 586.059 72.656C583.371 72.656 581.035 73.232 579.051 74.384C577.067 75.536 575.531 77.168 574.443 79.28C573.355 81.328 572.811 83.792 572.811 86.672C572.811 89.552 573.387 92.08 574.539 94.256C575.691 96.432 577.323 98.128 579.435 99.344C581.547 100.496 583.979 101.072 586.731 101.072C589.099 101.072 591.275 100.656 593.259 99.824C595.307 98.992 597.035 97.776 598.443 96.176L605.163 102.992C602.923 105.616 600.203 107.6 597.003 108.944C593.803 110.288 590.411 110.96 586.827 110.96Z" fill="white"/>
</svg>
